<mxfile host="app.diagrams.net" agent="Mozilla/5.0 (Windows NT 10.0; Win64; x64) AppleWebKit/537.36 (KHTML, like Gecko) Chrome/135.0.0.0 Safari/537.36" version="26.2.15">
  <diagram name="Page-1" id="0969DUsx1kGhNEbmnaid">
    <mxGraphModel dx="1982" dy="712" grid="0" gridSize="10" guides="1" tooltips="1" connect="1" arrows="1" fold="1" page="0" pageScale="1" pageWidth="2000" pageHeight="2000" math="0" shadow="0">
      <root>
        <mxCell id="0" />
        <mxCell id="1" parent="0" />
        <mxCell id="z8HHdcAha1QPnPcR0_sn-1" value="Hệ thống" style="swimlane;startSize=23;" vertex="1" parent="1">
          <mxGeometry x="372" y="190" width="398" height="1046" as="geometry" />
        </mxCell>
        <mxCell id="z8HHdcAha1QPnPcR0_sn-2" value="Hiển thị biểu mẫu nhập thông tin cá nhân và email" style="rounded=1;whiteSpace=wrap;html=1;arcSize=40;fontColor=#000000;fillColor=#FFFFFF;strokeColor=#000000;" vertex="1" parent="z8HHdcAha1QPnPcR0_sn-1">
          <mxGeometry x="140" y="105" width="140" height="50" as="geometry" />
        </mxCell>
        <mxCell id="z8HHdcAha1QPnPcR0_sn-45" value="Activity Diagram:&lt;div&gt;Xác nhận email&lt;/div&gt;" style="shape=note;whiteSpace=wrap;html=1;backgroundOutline=1;darkOpacity=0.05;" vertex="1" parent="z8HHdcAha1QPnPcR0_sn-1">
          <mxGeometry x="220.5" y="220" width="143" height="88" as="geometry" />
        </mxCell>
        <mxCell id="z8HHdcAha1QPnPcR0_sn-51" value="" style="edgeStyle=orthogonalEdgeStyle;rounded=0;orthogonalLoop=1;jettySize=auto;html=1;endArrow=none;startFill=0;" edge="1" parent="z8HHdcAha1QPnPcR0_sn-1" source="z8HHdcAha1QPnPcR0_sn-44" target="z8HHdcAha1QPnPcR0_sn-45">
          <mxGeometry relative="1" as="geometry" />
        </mxCell>
        <mxCell id="z8HHdcAha1QPnPcR0_sn-57" value="" style="edgeStyle=orthogonalEdgeStyle;rounded=0;orthogonalLoop=1;jettySize=auto;html=1;" edge="1" parent="z8HHdcAha1QPnPcR0_sn-1" source="z8HHdcAha1QPnPcR0_sn-44" target="z8HHdcAha1QPnPcR0_sn-56">
          <mxGeometry relative="1" as="geometry" />
        </mxCell>
        <mxCell id="z8HHdcAha1QPnPcR0_sn-44" value="Xác nhận email" style="rounded=1;whiteSpace=wrap;html=1;arcSize=40;fontColor=#000000;fillColor=#FFFFFF;strokeColor=#000000;" vertex="1" parent="z8HHdcAha1QPnPcR0_sn-1">
          <mxGeometry x="64" y="244" width="120" height="40" as="geometry" />
        </mxCell>
        <mxCell id="z8HHdcAha1QPnPcR0_sn-59" style="edgeStyle=orthogonalEdgeStyle;rounded=0;orthogonalLoop=1;jettySize=auto;html=1;exitX=1;exitY=0.5;exitDx=0;exitDy=0;exitPerimeter=0;entryX=0.5;entryY=0;entryDx=0;entryDy=0;" edge="1" parent="z8HHdcAha1QPnPcR0_sn-1" source="z8HHdcAha1QPnPcR0_sn-56" target="z8HHdcAha1QPnPcR0_sn-58">
          <mxGeometry relative="1" as="geometry" />
        </mxCell>
        <mxCell id="z8HHdcAha1QPnPcR0_sn-60" value="[Không]" style="edgeLabel;html=1;align=center;verticalAlign=middle;resizable=0;points=[];" vertex="1" connectable="0" parent="z8HHdcAha1QPnPcR0_sn-59">
          <mxGeometry x="-0.3887" y="-1" relative="1" as="geometry">
            <mxPoint x="1" as="offset" />
          </mxGeometry>
        </mxCell>
        <mxCell id="z8HHdcAha1QPnPcR0_sn-56" value="" style="strokeWidth=2;html=1;shape=mxgraph.flowchart.decision;whiteSpace=wrap;" vertex="1" parent="z8HHdcAha1QPnPcR0_sn-1">
          <mxGeometry x="103.5" y="333" width="40" height="40" as="geometry" />
        </mxCell>
        <mxCell id="z8HHdcAha1QPnPcR0_sn-190" value="" style="edgeStyle=orthogonalEdgeStyle;rounded=0;orthogonalLoop=1;jettySize=auto;html=1;" edge="1" parent="z8HHdcAha1QPnPcR0_sn-1" source="z8HHdcAha1QPnPcR0_sn-58" target="z8HHdcAha1QPnPcR0_sn-62">
          <mxGeometry relative="1" as="geometry" />
        </mxCell>
        <mxCell id="z8HHdcAha1QPnPcR0_sn-58" value="Hệ thống thông báo email không xác nhận thành công" style="rounded=1;whiteSpace=wrap;html=1;arcSize=40;fontColor=#000000;fillColor=#FFFFFF;strokeColor=#000000;" vertex="1" parent="z8HHdcAha1QPnPcR0_sn-1">
          <mxGeometry x="158" y="411" width="131" height="58" as="geometry" />
        </mxCell>
        <mxCell id="z8HHdcAha1QPnPcR0_sn-61" value="[Xác nhận email có&lt;div&gt;thành công không?]&lt;/div&gt;" style="edgeLabel;html=1;align=center;verticalAlign=middle;resizable=0;points=[];" vertex="1" connectable="0" parent="z8HHdcAha1QPnPcR0_sn-1">
          <mxGeometry x="64" y="301" as="geometry">
            <mxPoint x="-16" y="4" as="offset" />
          </mxGeometry>
        </mxCell>
        <mxCell id="z8HHdcAha1QPnPcR0_sn-62" value="" style="ellipse;html=1;shape=endState;fillColor=#000000;strokeColor=#000000;" vertex="1" parent="z8HHdcAha1QPnPcR0_sn-1">
          <mxGeometry x="343" y="425" width="30" height="30" as="geometry" />
        </mxCell>
        <mxCell id="z8HHdcAha1QPnPcR0_sn-164" value="Hiển thị biểu mẫu nhập mật khẩu mới và xác nhận mật khẩu" style="rounded=1;whiteSpace=wrap;html=1;arcSize=40;fontColor=#000000;fillColor=#FFFFFF;strokeColor=#000000;" vertex="1" parent="z8HHdcAha1QPnPcR0_sn-1">
          <mxGeometry x="7" y="405" width="133" height="58" as="geometry" />
        </mxCell>
        <mxCell id="z8HHdcAha1QPnPcR0_sn-65" style="edgeStyle=orthogonalEdgeStyle;rounded=0;orthogonalLoop=1;jettySize=auto;html=1;exitX=0;exitY=0.5;exitDx=0;exitDy=0;entryX=0.5;entryY=0;entryDx=0;entryDy=0;exitPerimeter=0;" edge="1" parent="z8HHdcAha1QPnPcR0_sn-1" source="z8HHdcAha1QPnPcR0_sn-56" target="z8HHdcAha1QPnPcR0_sn-164">
          <mxGeometry relative="1" as="geometry">
            <mxPoint x="-521" y="435" as="targetPoint" />
          </mxGeometry>
        </mxCell>
        <mxCell id="z8HHdcAha1QPnPcR0_sn-66" value="[Thành công]" style="edgeLabel;html=1;align=center;verticalAlign=middle;resizable=0;points=[];" vertex="1" connectable="0" parent="z8HHdcAha1QPnPcR0_sn-65">
          <mxGeometry x="-0.7158" y="-1" relative="1" as="geometry">
            <mxPoint x="-22" y="16" as="offset" />
          </mxGeometry>
        </mxCell>
        <mxCell id="z8HHdcAha1QPnPcR0_sn-192" value="Kiểm tra mật khẩu" style="rounded=1;whiteSpace=wrap;html=1;arcSize=40;fontColor=#000000;fillColor=#FFFFFF;strokeColor=#000000;" vertex="1" parent="z8HHdcAha1QPnPcR0_sn-1">
          <mxGeometry x="15" y="528" width="120" height="40" as="geometry" />
        </mxCell>
        <mxCell id="z8HHdcAha1QPnPcR0_sn-202" style="edgeStyle=orthogonalEdgeStyle;rounded=0;orthogonalLoop=1;jettySize=auto;html=1;exitX=0.5;exitY=1;exitDx=0;exitDy=0;exitPerimeter=0;" edge="1" parent="z8HHdcAha1QPnPcR0_sn-1" source="z8HHdcAha1QPnPcR0_sn-196" target="z8HHdcAha1QPnPcR0_sn-203">
          <mxGeometry relative="1" as="geometry">
            <mxPoint x="72" y="763" as="targetPoint" />
          </mxGeometry>
        </mxCell>
        <mxCell id="z8HHdcAha1QPnPcR0_sn-196" value="" style="strokeWidth=2;html=1;shape=mxgraph.flowchart.decision;whiteSpace=wrap;" vertex="1" parent="z8HHdcAha1QPnPcR0_sn-1">
          <mxGeometry x="52" y="596" width="40" height="40" as="geometry" />
        </mxCell>
        <mxCell id="z8HHdcAha1QPnPcR0_sn-198" style="edgeStyle=orthogonalEdgeStyle;rounded=0;orthogonalLoop=1;jettySize=auto;html=1;exitX=0.5;exitY=1;exitDx=0;exitDy=0;entryX=0.5;entryY=0;entryDx=0;entryDy=0;entryPerimeter=0;" edge="1" parent="z8HHdcAha1QPnPcR0_sn-1" source="z8HHdcAha1QPnPcR0_sn-192" target="z8HHdcAha1QPnPcR0_sn-196">
          <mxGeometry relative="1" as="geometry" />
        </mxCell>
        <mxCell id="z8HHdcAha1QPnPcR0_sn-166" value="Thông báo mật khẩu sai quy tắc" style="rounded=1;whiteSpace=wrap;html=1;arcSize=40;fontColor=#000000;fillColor=#FFFFFF;strokeColor=#000000;" vertex="1" parent="z8HHdcAha1QPnPcR0_sn-1">
          <mxGeometry x="196" y="587" width="120" height="40" as="geometry" />
        </mxCell>
        <mxCell id="z8HHdcAha1QPnPcR0_sn-183" style="edgeStyle=orthogonalEdgeStyle;rounded=0;orthogonalLoop=1;jettySize=auto;html=1;exitX=1;exitY=0.5;exitDx=0;exitDy=0;entryX=0;entryY=0.75;entryDx=0;entryDy=0;exitPerimeter=0;" edge="1" parent="z8HHdcAha1QPnPcR0_sn-1" source="z8HHdcAha1QPnPcR0_sn-196" target="z8HHdcAha1QPnPcR0_sn-166">
          <mxGeometry relative="1" as="geometry">
            <mxPoint x="-548" y="481" as="sourcePoint" />
          </mxGeometry>
        </mxCell>
        <mxCell id="z8HHdcAha1QPnPcR0_sn-184" value="[Sai quy tắc]" style="edgeLabel;html=1;align=center;verticalAlign=middle;resizable=0;points=[];" vertex="1" connectable="0" parent="z8HHdcAha1QPnPcR0_sn-183">
          <mxGeometry x="-0.8063" y="5" relative="1" as="geometry">
            <mxPoint x="25" y="5" as="offset" />
          </mxGeometry>
        </mxCell>
        <mxCell id="z8HHdcAha1QPnPcR0_sn-179" value="[Đúng quy tắc]" style="edgeLabel;html=1;align=center;verticalAlign=middle;resizable=0;points=[];" vertex="1" connectable="0" parent="z8HHdcAha1QPnPcR0_sn-1">
          <mxGeometry x="71.99545454545455" y="672" as="geometry" />
        </mxCell>
        <mxCell id="z8HHdcAha1QPnPcR0_sn-205" style="edgeStyle=orthogonalEdgeStyle;rounded=0;orthogonalLoop=1;jettySize=auto;html=1;exitX=0.5;exitY=1;exitDx=0;exitDy=0;entryX=0.5;entryY=0;entryDx=0;entryDy=0;" edge="1" parent="z8HHdcAha1QPnPcR0_sn-1" source="z8HHdcAha1QPnPcR0_sn-203" target="z8HHdcAha1QPnPcR0_sn-178">
          <mxGeometry relative="1" as="geometry" />
        </mxCell>
        <mxCell id="z8HHdcAha1QPnPcR0_sn-203" value="Kiểm tra xác nhận mật khẩu" style="rounded=1;whiteSpace=wrap;html=1;arcSize=40;fontColor=#000000;fillColor=#FFFFFF;strokeColor=#000000;" vertex="1" parent="z8HHdcAha1QPnPcR0_sn-1">
          <mxGeometry x="12" y="731" width="120" height="40" as="geometry" />
        </mxCell>
        <mxCell id="z8HHdcAha1QPnPcR0_sn-206" style="edgeStyle=orthogonalEdgeStyle;rounded=0;orthogonalLoop=1;jettySize=auto;html=1;exitX=0.5;exitY=1;exitDx=0;exitDy=0;entryX=0.5;entryY=0;entryDx=0;entryDy=0;" edge="1" parent="z8HHdcAha1QPnPcR0_sn-1" source="z8HHdcAha1QPnPcR0_sn-178" target="z8HHdcAha1QPnPcR0_sn-167">
          <mxGeometry relative="1" as="geometry" />
        </mxCell>
        <mxCell id="z8HHdcAha1QPnPcR0_sn-207" value="[Không trùng khớp]" style="edgeLabel;html=1;align=center;verticalAlign=middle;resizable=0;points=[];" vertex="1" connectable="0" parent="z8HHdcAha1QPnPcR0_sn-206">
          <mxGeometry x="-0.1304" y="1" relative="1" as="geometry">
            <mxPoint as="offset" />
          </mxGeometry>
        </mxCell>
        <mxCell id="z8HHdcAha1QPnPcR0_sn-178" value="" style="rhombus;whiteSpace=wrap;html=1;" vertex="1" parent="z8HHdcAha1QPnPcR0_sn-1">
          <mxGeometry x="52" y="804" width="40" height="40" as="geometry" />
        </mxCell>
        <mxCell id="z8HHdcAha1QPnPcR0_sn-169" value="Tạo tài khoản" style="rounded=1;whiteSpace=wrap;html=1;arcSize=40;fontColor=#000000;fillColor=#FFFFFF;strokeColor=#000000;" vertex="1" parent="z8HHdcAha1QPnPcR0_sn-1">
          <mxGeometry x="203" y="859" width="120" height="40" as="geometry" />
        </mxCell>
        <mxCell id="z8HHdcAha1QPnPcR0_sn-188" style="edgeStyle=orthogonalEdgeStyle;rounded=0;orthogonalLoop=1;jettySize=auto;html=1;entryX=0;entryY=0.5;entryDx=0;entryDy=0;exitX=1;exitY=0.5;exitDx=0;exitDy=0;" edge="1" parent="z8HHdcAha1QPnPcR0_sn-1" source="z8HHdcAha1QPnPcR0_sn-178" target="z8HHdcAha1QPnPcR0_sn-169">
          <mxGeometry relative="1" as="geometry">
            <mxPoint x="-759" y="966" as="targetPoint" />
            <mxPoint x="97" y="829" as="sourcePoint" />
          </mxGeometry>
        </mxCell>
        <mxCell id="z8HHdcAha1QPnPcR0_sn-189" value="[Trùng khớp]" style="edgeLabel;html=1;align=center;verticalAlign=middle;resizable=0;points=[];" vertex="1" connectable="0" parent="z8HHdcAha1QPnPcR0_sn-188">
          <mxGeometry x="-0.9173" y="-1" relative="1" as="geometry">
            <mxPoint x="30" y="1" as="offset" />
          </mxGeometry>
        </mxCell>
        <mxCell id="z8HHdcAha1QPnPcR0_sn-171" value="Thông báo tạo tài khoản thành công" style="rounded=1;whiteSpace=wrap;html=1;arcSize=40;fontColor=#000000;fillColor=#FFFFFF;strokeColor=#000000;" vertex="1" parent="z8HHdcAha1QPnPcR0_sn-1">
          <mxGeometry x="203" y="944" width="120" height="40" as="geometry" />
        </mxCell>
        <mxCell id="z8HHdcAha1QPnPcR0_sn-168" style="edgeStyle=orthogonalEdgeStyle;rounded=0;orthogonalLoop=1;jettySize=auto;html=1;exitX=0.5;exitY=1;exitDx=0;exitDy=0;entryX=0.5;entryY=0;entryDx=0;entryDy=0;" edge="1" parent="z8HHdcAha1QPnPcR0_sn-1" source="z8HHdcAha1QPnPcR0_sn-169" target="z8HHdcAha1QPnPcR0_sn-171">
          <mxGeometry relative="1" as="geometry" />
        </mxCell>
        <mxCell id="z8HHdcAha1QPnPcR0_sn-165" value="" style="ellipse;html=1;shape=endState;fillColor=#000000;strokeColor=#000000;" vertex="1" parent="z8HHdcAha1QPnPcR0_sn-1">
          <mxGeometry x="248" y="1016" width="30" height="30" as="geometry" />
        </mxCell>
        <mxCell id="z8HHdcAha1QPnPcR0_sn-170" style="edgeStyle=orthogonalEdgeStyle;rounded=0;orthogonalLoop=1;jettySize=auto;html=1;exitX=0.5;exitY=1;exitDx=0;exitDy=0;" edge="1" parent="z8HHdcAha1QPnPcR0_sn-1" source="z8HHdcAha1QPnPcR0_sn-171" target="z8HHdcAha1QPnPcR0_sn-165">
          <mxGeometry relative="1" as="geometry" />
        </mxCell>
        <mxCell id="z8HHdcAha1QPnPcR0_sn-167" value="Thông báo xác nhận mật khẩu không trùng khớp" style="rounded=1;whiteSpace=wrap;html=1;arcSize=40;fontColor=#000000;fillColor=#FFFFFF;strokeColor=#000000;" vertex="1" parent="z8HHdcAha1QPnPcR0_sn-1">
          <mxGeometry x="2" y="890" width="140" height="50" as="geometry" />
        </mxCell>
        <mxCell id="z8HHdcAha1QPnPcR0_sn-14" value="Quản trị viên" style="swimlane;startSize=23;" vertex="1" parent="1">
          <mxGeometry x="60" y="190" width="311" height="1046" as="geometry" />
        </mxCell>
        <mxCell id="z8HHdcAha1QPnPcR0_sn-15" value="Chọn chức năng Tạo tài khoản" style="rounded=1;whiteSpace=wrap;html=1;arcSize=40;fontColor=#000000;fillColor=#FFFFFF;strokeColor=#000000;" vertex="1" parent="z8HHdcAha1QPnPcR0_sn-14">
          <mxGeometry x="120" y="110" width="120" height="40" as="geometry" />
        </mxCell>
        <mxCell id="z8HHdcAha1QPnPcR0_sn-16" value="" style="ellipse;html=1;shape=startState;fillColor=#000000;strokeColor=#000000;" vertex="1" parent="z8HHdcAha1QPnPcR0_sn-14">
          <mxGeometry x="165" y="40" width="30" height="30" as="geometry" />
        </mxCell>
        <mxCell id="z8HHdcAha1QPnPcR0_sn-17" value="" style="edgeStyle=orthogonalEdgeStyle;html=1;verticalAlign=bottom;endArrow=open;endSize=8;strokeColor=#000000;rounded=0;entryX=0.5;entryY=0;entryDx=0;entryDy=0;" edge="1" parent="z8HHdcAha1QPnPcR0_sn-14" source="z8HHdcAha1QPnPcR0_sn-16" target="z8HHdcAha1QPnPcR0_sn-15">
          <mxGeometry relative="1" as="geometry">
            <mxPoint x="90" y="130" as="targetPoint" />
          </mxGeometry>
        </mxCell>
        <mxCell id="z8HHdcAha1QPnPcR0_sn-21" style="edgeStyle=orthogonalEdgeStyle;rounded=0;orthogonalLoop=1;jettySize=auto;html=1;exitX=1;exitY=0.5;exitDx=0;exitDy=0;" edge="1" parent="1" source="z8HHdcAha1QPnPcR0_sn-15" target="z8HHdcAha1QPnPcR0_sn-2">
          <mxGeometry relative="1" as="geometry" />
        </mxCell>
        <mxCell id="z8HHdcAha1QPnPcR0_sn-22" style="edgeStyle=orthogonalEdgeStyle;rounded=0;orthogonalLoop=1;jettySize=auto;html=1;exitX=0.5;exitY=1;exitDx=0;exitDy=0;entryX=1;entryY=0.5;entryDx=0;entryDy=0;" edge="1" parent="1" source="z8HHdcAha1QPnPcR0_sn-2" target="z8HHdcAha1QPnPcR0_sn-24">
          <mxGeometry relative="1" as="geometry" />
        </mxCell>
        <mxCell id="z8HHdcAha1QPnPcR0_sn-23" value="Nhân viên mới" style="swimlane;whiteSpace=wrap;html=1;" vertex="1" parent="1">
          <mxGeometry x="-300" y="190" width="360" height="1046" as="geometry" />
        </mxCell>
        <mxCell id="z8HHdcAha1QPnPcR0_sn-24" value="Nhập thông tin vào biểu mẫu" style="rounded=1;whiteSpace=wrap;html=1;arcSize=40;fontColor=#000000;fillColor=#FFFFFF;strokeColor=#000000;" vertex="1" parent="z8HHdcAha1QPnPcR0_sn-23">
          <mxGeometry x="180" y="170" width="120" height="40" as="geometry" />
        </mxCell>
        <mxCell id="z8HHdcAha1QPnPcR0_sn-25" style="edgeStyle=orthogonalEdgeStyle;rounded=0;orthogonalLoop=1;jettySize=auto;html=1;exitX=0.5;exitY=0;exitDx=0;exitDy=0;exitPerimeter=0;entryX=0.5;entryY=1;entryDx=0;entryDy=0;" edge="1" parent="z8HHdcAha1QPnPcR0_sn-23" source="z8HHdcAha1QPnPcR0_sn-27" target="z8HHdcAha1QPnPcR0_sn-32">
          <mxGeometry relative="1" as="geometry">
            <mxPoint x="90" y="120" as="targetPoint" />
          </mxGeometry>
        </mxCell>
        <mxCell id="z8HHdcAha1QPnPcR0_sn-26" value="[Không hợp lệ]" style="edgeLabel;html=1;align=center;verticalAlign=middle;resizable=0;points=[];" vertex="1" connectable="0" parent="z8HHdcAha1QPnPcR0_sn-25">
          <mxGeometry x="-0.1357" y="-1" relative="1" as="geometry">
            <mxPoint as="offset" />
          </mxGeometry>
        </mxCell>
        <mxCell id="z8HHdcAha1QPnPcR0_sn-27" value="" style="strokeWidth=2;html=1;shape=mxgraph.flowchart.decision;whiteSpace=wrap;" vertex="1" parent="z8HHdcAha1QPnPcR0_sn-23">
          <mxGeometry x="70" y="170" width="40" height="40" as="geometry" />
        </mxCell>
        <mxCell id="z8HHdcAha1QPnPcR0_sn-30" style="edgeStyle=orthogonalEdgeStyle;rounded=0;orthogonalLoop=1;jettySize=auto;html=1;exitX=0;exitY=0.5;exitDx=0;exitDy=0;entryX=1;entryY=0.5;entryDx=0;entryDy=0;entryPerimeter=0;" edge="1" parent="z8HHdcAha1QPnPcR0_sn-23" source="z8HHdcAha1QPnPcR0_sn-24" target="z8HHdcAha1QPnPcR0_sn-27">
          <mxGeometry relative="1" as="geometry" />
        </mxCell>
        <mxCell id="z8HHdcAha1QPnPcR0_sn-31" style="edgeStyle=orthogonalEdgeStyle;rounded=0;orthogonalLoop=1;jettySize=auto;html=1;exitX=1;exitY=0.5;exitDx=0;exitDy=0;entryX=0.5;entryY=0;entryDx=0;entryDy=0;" edge="1" parent="z8HHdcAha1QPnPcR0_sn-23" source="z8HHdcAha1QPnPcR0_sn-32" target="z8HHdcAha1QPnPcR0_sn-24">
          <mxGeometry relative="1" as="geometry" />
        </mxCell>
        <mxCell id="z8HHdcAha1QPnPcR0_sn-32" value="Thông báo thông tin không hợp lệ" style="rounded=1;whiteSpace=wrap;html=1;arcSize=40;fontColor=#000000;fillColor=#FFFFFF;strokeColor=#000000;" vertex="1" parent="z8HHdcAha1QPnPcR0_sn-23">
          <mxGeometry x="30" y="60" width="120" height="40" as="geometry" />
        </mxCell>
        <mxCell id="z8HHdcAha1QPnPcR0_sn-33" value="[Kiểm tra&lt;div&gt;thông tin]&lt;/div&gt;" style="text;html=1;align=center;verticalAlign=middle;resizable=0;points=[];autosize=1;strokeColor=none;fillColor=none;" vertex="1" parent="z8HHdcAha1QPnPcR0_sn-23">
          <mxGeometry y="153" width="70" height="40" as="geometry" />
        </mxCell>
        <mxCell id="z8HHdcAha1QPnPcR0_sn-173" value="Điền mật khẩu mới và xác nhận mật khẩu" style="rounded=1;whiteSpace=wrap;html=1;arcSize=40;fontColor=#000000;fillColor=#FFFFFF;strokeColor=#000000;" vertex="1" parent="z8HHdcAha1QPnPcR0_sn-23">
          <mxGeometry x="44" y="306" width="120" height="40" as="geometry" />
        </mxCell>
        <mxCell id="z8HHdcAha1QPnPcR0_sn-175" value="Nhập mới khẩu mới lần nữa" style="rounded=1;whiteSpace=wrap;html=1;arcSize=40;fontColor=#000000;fillColor=#FFFFFF;strokeColor=#000000;" vertex="1" parent="z8HHdcAha1QPnPcR0_sn-23">
          <mxGeometry x="93" y="569" width="120" height="40" as="geometry" />
        </mxCell>
        <mxCell id="z8HHdcAha1QPnPcR0_sn-35" style="edgeStyle=orthogonalEdgeStyle;rounded=0;orthogonalLoop=1;jettySize=auto;html=1;exitX=0.5;exitY=1;exitDx=0;exitDy=0;exitPerimeter=0;entryX=0;entryY=0.5;entryDx=0;entryDy=0;" edge="1" parent="1" source="z8HHdcAha1QPnPcR0_sn-27" target="z8HHdcAha1QPnPcR0_sn-44">
          <mxGeometry relative="1" as="geometry">
            <mxPoint x="105" y="485" as="targetPoint" />
          </mxGeometry>
        </mxCell>
        <mxCell id="z8HHdcAha1QPnPcR0_sn-36" value="[Hợp lệ]" style="edgeLabel;html=1;align=center;verticalAlign=middle;resizable=0;points=[];" vertex="1" connectable="0" parent="z8HHdcAha1QPnPcR0_sn-35">
          <mxGeometry x="-0.8388" y="3" relative="1" as="geometry">
            <mxPoint x="-1" as="offset" />
          </mxGeometry>
        </mxCell>
        <mxCell id="z8HHdcAha1QPnPcR0_sn-191" style="edgeStyle=orthogonalEdgeStyle;rounded=0;orthogonalLoop=1;jettySize=auto;html=1;exitX=0;exitY=0.5;exitDx=0;exitDy=0;entryX=1;entryY=0.25;entryDx=0;entryDy=0;" edge="1" parent="1" source="z8HHdcAha1QPnPcR0_sn-164" target="z8HHdcAha1QPnPcR0_sn-173">
          <mxGeometry relative="1" as="geometry" />
        </mxCell>
        <mxCell id="z8HHdcAha1QPnPcR0_sn-197" style="edgeStyle=orthogonalEdgeStyle;rounded=0;orthogonalLoop=1;jettySize=auto;html=1;exitX=0.5;exitY=1;exitDx=0;exitDy=0;entryX=0.25;entryY=0;entryDx=0;entryDy=0;" edge="1" parent="1" source="z8HHdcAha1QPnPcR0_sn-173" target="z8HHdcAha1QPnPcR0_sn-192">
          <mxGeometry relative="1" as="geometry">
            <Array as="points">
              <mxPoint x="-196" y="657" />
              <mxPoint x="417" y="657" />
            </Array>
          </mxGeometry>
        </mxCell>
        <mxCell id="z8HHdcAha1QPnPcR0_sn-199" style="edgeStyle=orthogonalEdgeStyle;rounded=0;orthogonalLoop=1;jettySize=auto;html=1;exitX=0.5;exitY=1;exitDx=0;exitDy=0;entryX=0;entryY=0.5;entryDx=0;entryDy=0;" edge="1" parent="1" source="z8HHdcAha1QPnPcR0_sn-166" target="z8HHdcAha1QPnPcR0_sn-173">
          <mxGeometry relative="1" as="geometry">
            <mxPoint x="-280" y="516" as="targetPoint" />
            <Array as="points">
              <mxPoint x="628" y="837" />
              <mxPoint x="-284" y="837" />
              <mxPoint x="-284" y="516" />
            </Array>
          </mxGeometry>
        </mxCell>
        <mxCell id="z8HHdcAha1QPnPcR0_sn-208" style="edgeStyle=orthogonalEdgeStyle;rounded=0;orthogonalLoop=1;jettySize=auto;html=1;exitX=0;exitY=0.5;exitDx=0;exitDy=0;" edge="1" parent="1" source="z8HHdcAha1QPnPcR0_sn-167" target="z8HHdcAha1QPnPcR0_sn-175">
          <mxGeometry relative="1" as="geometry" />
        </mxCell>
        <mxCell id="z8HHdcAha1QPnPcR0_sn-209" style="edgeStyle=orthogonalEdgeStyle;rounded=0;orthogonalLoop=1;jettySize=auto;html=1;exitX=1;exitY=0.5;exitDx=0;exitDy=0;entryX=0;entryY=0.5;entryDx=0;entryDy=0;" edge="1" parent="1" source="z8HHdcAha1QPnPcR0_sn-175" target="z8HHdcAha1QPnPcR0_sn-203">
          <mxGeometry relative="1" as="geometry" />
        </mxCell>
      </root>
    </mxGraphModel>
  </diagram>
</mxfile>
